<mxfile host="app.diagrams.net" agent="Mozilla/5.0 (X11; Linux x86_64) AppleWebKit/537.36 (KHTML, like Gecko) Chrome/112.0.0.0 Safari/537.36" version="24.7.5">
  <diagram name="Page-1" id="I_wdkg0ZlfrT_e-AS8QL">
    <mxGraphModel dx="1371" dy="799" grid="1" gridSize="10" guides="1" tooltips="1" connect="1" arrows="1" fold="1" page="1" pageScale="1" pageWidth="850" pageHeight="1100" math="0" shadow="0">
      <root>
        <mxCell id="0" />
        <mxCell id="1" parent="0" />
        <mxCell id="Ao320Pc0rIPsjdrXAPvX-12" style="edgeStyle=orthogonalEdgeStyle;rounded=0;orthogonalLoop=1;jettySize=auto;html=1;exitX=1;exitY=0.5;exitDx=0;exitDy=0;entryX=0;entryY=0.5;entryDx=0;entryDy=0;shape=flexArrow;" edge="1" parent="1" source="Ao320Pc0rIPsjdrXAPvX-2" target="Ao320Pc0rIPsjdrXAPvX-5">
          <mxGeometry relative="1" as="geometry" />
        </mxCell>
        <mxCell id="Ao320Pc0rIPsjdrXAPvX-13" value="duplication" style="edgeLabel;html=1;align=center;verticalAlign=middle;resizable=0;points=[];" vertex="1" connectable="0" parent="Ao320Pc0rIPsjdrXAPvX-12">
          <mxGeometry x="0.06" y="7" relative="1" as="geometry">
            <mxPoint as="offset" />
          </mxGeometry>
        </mxCell>
        <mxCell id="Ao320Pc0rIPsjdrXAPvX-2" value="master cluster" style="rounded=0;whiteSpace=wrap;html=1;" vertex="1" parent="1">
          <mxGeometry x="130" y="450" width="120" height="60" as="geometry" />
        </mxCell>
        <mxCell id="Ao320Pc0rIPsjdrXAPvX-9" style="edgeStyle=orthogonalEdgeStyle;rounded=0;orthogonalLoop=1;jettySize=auto;html=1;exitX=0.5;exitY=1;exitDx=0;exitDy=0;exitPerimeter=0;entryX=0.5;entryY=0;entryDx=0;entryDy=0;" edge="1" parent="1" source="Ao320Pc0rIPsjdrXAPvX-3" target="Ao320Pc0rIPsjdrXAPvX-2">
          <mxGeometry relative="1" as="geometry" />
        </mxCell>
        <mxCell id="Ao320Pc0rIPsjdrXAPvX-3" value="HDFS&lt;div&gt;sst data&lt;/div&gt;" style="shape=cylinder3;whiteSpace=wrap;html=1;boundedLbl=1;backgroundOutline=1;size=15;" vertex="1" parent="1">
          <mxGeometry x="160" y="290" width="60" height="80" as="geometry" />
        </mxCell>
        <mxCell id="Ao320Pc0rIPsjdrXAPvX-5" value="backup cluster" style="rounded=0;whiteSpace=wrap;html=1;" vertex="1" parent="1">
          <mxGeometry x="350" y="450" width="120" height="60" as="geometry" />
        </mxCell>
        <mxCell id="Ao320Pc0rIPsjdrXAPvX-8" style="edgeStyle=orthogonalEdgeStyle;rounded=0;orthogonalLoop=1;jettySize=auto;html=1;exitX=0.5;exitY=1;exitDx=0;exitDy=0;" edge="1" parent="1" source="Ao320Pc0rIPsjdrXAPvX-6" target="Ao320Pc0rIPsjdrXAPvX-3">
          <mxGeometry relative="1" as="geometry" />
        </mxCell>
        <mxCell id="Ao320Pc0rIPsjdrXAPvX-6" value="spark生成文件任务1" style="rounded=1;whiteSpace=wrap;html=1;" vertex="1" parent="1">
          <mxGeometry x="130" y="160" width="120" height="60" as="geometry" />
        </mxCell>
        <mxCell id="Ao320Pc0rIPsjdrXAPvX-14" style="edgeStyle=orthogonalEdgeStyle;rounded=0;orthogonalLoop=1;jettySize=auto;html=1;exitX=1;exitY=0.5;exitDx=0;exitDy=0;exitPerimeter=0;" edge="1" parent="1" source="Ao320Pc0rIPsjdrXAPvX-3" target="Ao320Pc0rIPsjdrXAPvX-5">
          <mxGeometry relative="1" as="geometry">
            <mxPoint x="380" y="330" as="targetPoint" />
          </mxGeometry>
        </mxCell>
        <mxCell id="Ao320Pc0rIPsjdrXAPvX-15" value="修改bulk_load_info文件" style="edgeLabel;html=1;align=center;verticalAlign=middle;resizable=0;points=[];fontSize=16;" vertex="1" connectable="0" parent="Ao320Pc0rIPsjdrXAPvX-14">
          <mxGeometry x="-0.0625" y="-4" relative="1" as="geometry">
            <mxPoint as="offset" />
          </mxGeometry>
        </mxCell>
      </root>
    </mxGraphModel>
  </diagram>
</mxfile>
